<svg width="32" height="32" viewBox="0 0 32 32" fill="none" xmlns="http://www.w3.org/2000/svg">
  <defs>
    <linearGradient id="faviconGradient" x1="0%" y1="0%" x2="100%" y2="100%">
      <stop offset="0%" stop-color="#4a8a62" />
      <stop offset="100%" stop-color="#d98960" />
    </linearGradient>
  </defs>
  
  <!-- Background circle -->
  <circle cx="16" cy="16" r="16" fill="url(#faviconGradient)"/>
  
  <!-- Circular arrows representing circular fashion -->
  <path
    d="M 22 16 A 6 6 0 1 1 16 10 L 16 11.5 L 19 10 L 16 8.5 L 16 10 Z"
    fill="white"
    opacity="0.9"
  />
  <path
    d="M 10 16 A 6 6 0 1 1 16 22 L 16 20.5 L 13 22 L 16 23.5 L 16 22 Z"
    fill="white"
    opacity="0.9"
    transform="rotate(180 16 16)"
  />
  
  <!-- Hanger symbol in center -->
  <path
    d="M 16 13 L 14 15 L 12.5 15 L 12 16 L 12 18 L 20 18 L 20 16 L 19.5 15 L 18 15 L 16 13 Z"
    fill="white"
    opacity="0.9"
  />
  <circle cx="16" cy="12" r="1" fill="white" opacity="0.9"/>
</svg>
